<svg width="20" height="19" viewBox="0 0 20 19" fill="none" xmlns="http://www.w3.org/2000/svg">
<path d="M19.05 16.2093L11.0611 1.37332C10.4948 0.321443 8.98637 0.321443 8.41965 1.37332L0.431217 16.2093C0.30827 16.4376 0.24663 16.6939 0.252313 16.9532C0.257997 17.2125 0.33081 17.4659 0.463646 17.6886C0.596482 17.9114 0.784801 18.0959 1.01022 18.2241C1.23564 18.3524 1.49046 18.42 1.74981 18.4203H17.729C17.9886 18.4204 18.2437 18.3531 18.4694 18.225C18.6952 18.0969 18.8838 17.9125 19.0169 17.6896C19.15 17.4668 19.2231 17.2133 19.2289 16.9538C19.2346 16.6943 19.173 16.4378 19.05 16.2093ZM9.74059 16.1235C9.55517 16.1235 9.37392 16.0685 9.21974 15.9655C9.06557 15.8625 8.94541 15.716 8.87445 15.5447C8.8035 15.3734 8.78493 15.1849 8.82111 15.0031C8.85728 14.8212 8.94657 14.6542 9.07768 14.5231C9.20879 14.3919 9.37584 14.3027 9.55769 14.2665C9.73955 14.2303 9.92805 14.2489 10.0994 14.3198C10.2707 14.3908 10.4171 14.511 10.5201 14.6651C10.6231 14.8193 10.6781 15.0006 10.6781 15.186C10.6781 15.3091 10.6538 15.431 10.6067 15.5447C10.5596 15.6585 10.4906 15.7618 10.4035 15.8489C10.3164 15.9359 10.2131 16.005 10.0994 16.0521C9.98561 16.0992 9.86371 16.1235 9.74059 16.1235ZM10.7587 6.69457L10.4897 12.4133C10.4897 12.6122 10.4106 12.803 10.27 12.9436C10.1293 13.0843 9.93857 13.1633 9.73965 13.1633C9.54074 13.1633 9.34998 13.0843 9.20932 12.9436C9.06867 12.803 8.98965 12.6122 8.98965 12.4133L8.72059 6.69691C8.71455 6.56031 8.73606 6.42389 8.78386 6.29579C8.83166 6.16768 8.90476 6.05051 8.99881 5.95126C9.09285 5.85201 9.20592 5.77271 9.33127 5.71808C9.45662 5.66346 9.59168 5.63463 9.7284 5.63332H9.73825C9.87591 5.63325 10.0122 5.66107 10.1388 5.7151C10.2654 5.76913 10.3797 5.84825 10.4749 5.94769C10.5701 6.04713 10.6442 6.16483 10.6926 6.29368C10.7411 6.42253 10.7629 6.55986 10.7568 6.69738L10.7587 6.69457Z" fill="white"/>
</svg>
