<svg width="34" height="34" viewBox="0 0 34 34" fill="none" xmlns="http://www.w3.org/2000/svg">
<rect width="34" height="34" rx="17" fill="#D9D9D9"/>
<path fill-rule="evenodd" clip-rule="evenodd" d="M11.3259 18.1936C12.2337 18.1936 13.1416 18.1936 14.0495 18.1936C15.8452 18.1936 15.2286 19.7065 15.0599 20.3449C14.8763 21.0392 13.9962 24.0883 13.3506 26.4759C13.2039 27.0188 12.4858 29.1863 12.9337 29.6259C13.2512 29.9371 13.455 29.7583 13.921 29.1934C15.8722 26.8282 17.8345 24.4548 19.8303 22.1281C20.9687 20.8008 22.079 19.4495 23.2019 18.1091C23.4862 17.7697 25.045 16.0065 25.1573 15.6438C25.3004 15.1814 25.0325 14.8117 24.7708 14.6378C24.5116 14.4654 24.0705 14.4302 23.5522 14.436C23.0741 14.4414 21.9308 14.4547 21.4036 14.4547C20.7805 14.4547 19.9797 14.4544 19.7134 13.8006C19.5489 13.3968 19.7421 12.9748 19.8381 12.5984C20.4349 10.2588 21.0377 7.92072 21.6421 5.58314C22.0232 4.10899 22.1728 2.1542 20.893 3.64368C19.3658 5.421 18.6513 6.33006 17.4514 7.7519C16.0871 9.3686 14.7196 10.9921 13.3729 12.6235C12.2986 13.925 11.227 15.2296 10.1213 16.5044C9.52151 17.196 9.58162 18.1936 11.3259 18.1936Z" fill="#7F46A9"/>
</svg>
