<svg width="23" height="15" viewBox="0 0 23 15" fill="none" xmlns="http://www.w3.org/2000/svg">
<path d="M11.4996 10.5C13.1564 10.5 14.4996 9.15685 14.4996 7.5C14.4996 5.84315 13.1564 4.5 11.4996 4.5C9.84274 4.5 8.49959 5.84315 8.49959 7.5C8.49959 9.15685 9.84274 10.5 11.4996 10.5Z" fill="#D9D9D9"/>
<path d="M22.5077 6.68438C21.2674 4.76625 19.6582 3.13688 17.8544 1.97203C15.859 0.682032 13.6558 0 11.4837 0C9.49053 0 7.53068 0.569531 5.6585 1.69266C3.74928 2.83781 2.01959 4.51078 0.517248 6.66469C0.347647 6.90811 0.254242 7.19646 0.2489 7.49309C0.243558 7.78973 0.326522 8.08125 0.487248 8.33063C1.72522 10.268 3.3185 11.8997 5.09412 13.0486C7.09334 14.3438 9.2449 15 11.4837 15C13.6732 15 15.881 14.3236 17.868 13.0444C19.6708 11.8833 21.2768 10.2478 22.5124 8.31375C22.6676 8.07017 22.7496 7.78719 22.7488 7.49838C22.748 7.20956 22.6643 6.92705 22.5077 6.68438ZM11.4996 12C10.6096 12 9.73955 11.7361 8.99953 11.2416C8.2595 10.7471 7.68273 10.0443 7.34213 9.22208C7.00154 8.39981 6.91242 7.49501 7.08606 6.62209C7.25969 5.74918 7.68827 4.94736 8.31761 4.31802C8.94695 3.68868 9.74877 3.2601 10.6217 3.08647C11.4946 2.91283 12.3994 3.00195 13.2217 3.34254C14.0439 3.68314 14.7467 4.25991 15.2412 4.99993C15.7357 5.73995 15.9996 6.60998 15.9996 7.5C15.9982 8.69306 15.5237 9.83685 14.6801 10.6805C13.8364 11.5241 12.6926 11.9986 11.4996 12Z" fill="#D9D9D9"/>
</svg>
