<svg width="34" height="34" viewBox="0 0 34 34" fill="none" xmlns="http://www.w3.org/2000/svg">
<circle cx="17" cy="17" r="17" fill="#D9D9D9"/>
<path d="M17.5 6.08438L17.1694 6.44376C17.0885 6.52821 15.2 8.53891 15.2 10.5263C15.2 11.1552 15.4623 11.8344 15.89 12.3519C15.403 12.4022 14.9448 12.4723 14.4956 12.5675C14.731 11.8398 14.6645 10.9737 14.3231 10.3106C13.3852 8.4904 12.3555 7.57399 12.3106 7.53626L11.98 7.27751L11.6781 7.56501C11.6116 7.6279 10.0789 9.14266 10.3412 11.3456C10.4437 12.1991 10.848 12.7849 11.0169 12.9988C11.1732 13.1964 11.3996 13.4138 11.6637 13.5881C11.3744 13.7481 11.1031 13.9098 10.8587 14.0913C10.8498 14.0158 10.8587 13.9385 10.8444 13.8613C10.6988 13.1227 10.2748 12.4795 9.70875 12.1363C8.17961 11.2091 7.31711 10.6179 7.30812 10.6125L6.90562 10.3394L6.66125 10.7563C6.60914 10.8407 5.36929 12.8406 6.56062 14.7813C7.00984 15.5108 7.62617 15.8791 7.86875 16.0031C8.00351 16.0714 8.49226 16.2906 9.07625 16.2906C9.14632 16.2906 9.22359 16.2834 9.29187 16.2763C9.24695 16.4757 9.22 16.6734 9.22 16.88H9.23437C9.23437 18.8674 13.0186 20.5456 17.5 20.5456C21.9814 20.5456 25.7656 18.8674 25.7656 16.88H25.78C25.78 16.6734 25.753 16.4757 25.7081 16.2763C25.7764 16.2834 25.8537 16.2906 25.9237 16.2906C26.5077 16.2906 26.9947 16.0732 27.1312 16.0031C27.3756 15.8791 27.9919 15.5108 28.4394 14.7813C29.6307 12.8406 28.3927 10.8407 28.3387 10.7563L28.08 10.3394L27.6919 10.6125C27.6829 10.6179 26.8204 11.2091 25.2912 12.1363C24.7252 12.4795 24.3012 13.1227 24.1556 13.8613C24.1412 13.9385 24.1502 14.0158 24.1412 14.0913C23.8969 13.9098 23.6255 13.7481 23.3362 13.5881C23.6004 13.4138 23.8268 13.1964 23.9831 12.9988C24.152 12.7849 24.5563 12.1991 24.6587 11.3456C24.9193 9.14266 23.3866 7.6279 23.3219 7.56501L23.02 7.27751L22.7037 7.53626C22.6588 7.57399 21.6148 8.4904 20.6769 10.3106C20.3355 10.9737 20.269 11.8398 20.5044 12.5675C20.0552 12.4723 19.5969 12.4022 19.11 12.3519C19.5377 11.8344 19.8 11.1552 19.8 10.5263C19.8 8.53891 17.9097 6.52821 17.8306 6.44376L17.5 6.08438ZM17.5 10.4831C17.5 10.4831 18.19 11.2163 18.19 11.9063C18.19 12.0302 18.1612 12.1596 18.1037 12.28C17.9043 12.2728 17.703 12.2656 17.5 12.2656C17.2969 12.2656 17.0957 12.2728 16.8962 12.28C16.8387 12.1596 16.81 12.0302 16.81 11.9063C16.81 11.2163 17.5 10.4831 17.5 10.4831ZM12.3969 10.8281C12.3969 10.8281 13.0707 11.6619 13.5756 12.28C13.6798 12.4076 13.723 12.5891 13.705 12.7688C13.2899 12.8856 12.8964 13.0185 12.5262 13.1713C12.458 13.1066 12.3897 13.0221 12.3537 12.9413C11.9225 11.9835 12.3969 10.8281 12.3969 10.8281ZM22.6031 10.8281C22.6031 10.8281 23.0775 11.9835 22.6462 12.9413C22.6103 13.0221 22.542 13.1066 22.4737 13.1713C22.1036 13.0185 21.7101 12.8856 21.295 12.7688C21.277 12.5891 21.3202 12.4076 21.4244 12.28C21.9293 11.6619 22.6031 10.8281 22.6031 10.8281ZM8.21375 13.4444C8.21375 13.4444 9.17867 13.9134 9.89562 14.2638C10.043 14.3356 10.1526 14.483 10.2119 14.6519C9.93695 14.934 9.71593 15.2413 9.55062 15.5575C9.36914 15.5503 9.18765 15.4946 9.06187 15.385C8.26945 14.695 8.21375 13.4444 8.21375 13.4444ZM26.7862 13.4444C26.7862 13.4444 26.7305 14.695 25.9381 15.385C25.8123 15.4946 25.6309 15.5503 25.4494 15.5575C25.2877 15.2466 25.0702 14.9448 24.8025 14.6663C24.8618 14.4938 24.9534 14.3374 25.1044 14.2638C25.8213 13.9134 26.7862 13.4444 26.7862 13.4444ZM10.14 19.6831V21.02C10.14 23.5985 13.3726 25.62 17.5 25.62C21.6274 25.62 24.86 23.5985 24.86 21.02V19.6831C24.1718 20.1395 23.3147 20.5205 22.33 20.8188C22.2689 21.2752 21.9455 21.7118 21.5394 21.825C21.1135 21.9454 20.7523 21.6705 20.72 21.2069C19.9905 21.3399 19.2286 21.4261 18.42 21.4656C18.42 21.4692 18.42 21.4764 18.42 21.48C18.42 21.9885 18.0085 22.4 17.5 22.4C16.9915 22.4 16.58 21.9885 16.58 21.48C16.58 21.4764 16.58 21.4692 16.58 21.4656C15.7714 21.4261 15.0095 21.3399 14.28 21.2069C14.2477 21.6705 13.8883 21.9454 13.4606 21.825C13.0545 21.7118 12.7311 21.277 12.67 20.8188C11.6871 20.5205 10.8282 20.1395 10.14 19.6831Z" fill="#7F46A9"/>
</svg>
