<svg width="24" height="18" viewBox="0 0 24 18" fill="none" xmlns="http://www.w3.org/2000/svg">
<path d="M20.2501 17.9996C20.1516 17.9998 20.054 17.9804 19.963 17.9427C19.872 17.905 19.7894 17.8496 19.7199 17.7798L3.2199 1.27976C3.08519 1.13797 3.01119 0.949153 3.0137 0.753582C3.0162 0.558011 3.095 0.371154 3.23331 0.232853C3.37161 0.0945523 3.55846 0.0157491 3.75403 0.0132451C3.94961 0.0107412 4.13842 0.0847349 4.28021 0.21945L20.7802 16.7194C20.885 16.8243 20.9564 16.9579 20.9853 17.1034C21.0142 17.2488 20.9994 17.3996 20.9426 17.5366C20.8859 17.6736 20.7898 17.7907 20.6666 17.8731C20.5433 17.9555 20.3983 17.9995 20.2501 17.9996Z" fill="#D9D9D9"/>
<path d="M11.6251 11.8051L9.1974 9.37742C9.18349 9.36362 9.16561 9.35453 9.14627 9.35142C9.12692 9.34831 9.10709 9.35134 9.08956 9.36008C9.07203 9.36882 9.05767 9.38284 9.04852 9.40016C9.03936 9.41747 9.03585 9.43723 9.0385 9.45664C9.13651 10.0865 9.43223 10.6688 9.88295 11.1195C10.3337 11.5702 10.916 11.866 11.5458 11.964C11.5653 11.9666 11.585 11.9631 11.6023 11.954C11.6196 11.9448 11.6337 11.9304 11.6424 11.9129C11.6511 11.8954 11.6542 11.8756 11.6511 11.8562C11.6479 11.8369 11.6389 11.819 11.6251 11.8051Z" fill="#D9D9D9"/>
<path d="M12.3751 6.19414L14.8065 8.62461C14.8203 8.63859 14.8383 8.64785 14.8577 8.65107C14.8771 8.65429 14.8971 8.6513 14.9148 8.64253C14.9324 8.63376 14.9468 8.61966 14.956 8.60222C14.9652 8.58478 14.9686 8.56489 14.9658 8.54539C14.8681 7.91471 14.5721 7.3315 14.1208 6.88022C13.6696 6.42894 13.0864 6.13299 12.4557 6.03523C12.4362 6.03222 12.4162 6.03545 12.3986 6.04447C12.381 6.0535 12.3667 6.06784 12.3578 6.08547C12.3488 6.10309 12.3457 6.12309 12.3488 6.1426C12.3519 6.16212 12.3611 6.18015 12.3751 6.19414Z" fill="#D9D9D9"/>
<path d="M23.0157 9.81335C23.1709 9.56978 23.2529 9.28679 23.2521 8.99798C23.2513 8.70917 23.1676 8.42666 23.011 8.18398C21.7707 6.26586 20.1615 4.63648 18.3577 3.47164C16.3594 2.18164 14.1563 1.49961 11.9851 1.49961C10.8404 1.50118 9.70356 1.6878 8.6185 2.05226C8.58813 2.06236 8.56085 2.08007 8.53926 2.10369C8.51767 2.12732 8.50249 2.15608 8.49516 2.18723C8.48783 2.21839 8.48859 2.2509 8.49738 2.28167C8.50617 2.31245 8.52269 2.34046 8.54537 2.36304L10.7597 4.57742C10.7827 4.60046 10.8114 4.61712 10.8428 4.62575C10.8742 4.63438 10.9073 4.63469 10.9388 4.62664C11.6894 4.44372 12.4744 4.45713 13.2183 4.66556C13.9622 4.87399 14.64 5.27043 15.1862 5.81671C15.7325 6.36298 16.129 7.0407 16.3374 7.78461C16.5458 8.52851 16.5592 9.31355 16.3763 10.0641C16.3683 10.0956 16.3687 10.1286 16.3773 10.1599C16.3859 10.1912 16.4026 10.2198 16.4255 10.2427L19.6107 13.4302C19.6438 13.4634 19.6882 13.483 19.7351 13.4851C19.7819 13.4872 19.8279 13.4716 19.8638 13.4415C21.0899 12.3964 22.1523 11.1735 23.0157 9.81335Z" fill="#D9D9D9"/>
<path d="M12.0001 13.4996C11.3188 13.4996 10.6465 13.345 10.0338 13.0474C9.421 12.7498 8.88381 12.3169 8.46269 11.7815C8.04157 11.246 7.74751 10.622 7.60268 9.95631C7.45785 9.29067 7.46604 8.60084 7.62662 7.93882C7.63458 7.90734 7.63424 7.87433 7.62561 7.84302C7.61698 7.81172 7.60037 7.78319 7.5774 7.76023L4.44428 4.6257C4.41105 4.59244 4.36655 4.57287 4.31958 4.57087C4.27261 4.56888 4.22661 4.5846 4.19068 4.61492C3.0474 5.59039 1.98756 6.77726 1.01865 8.16429C0.849051 8.40772 0.755645 8.69607 0.750304 8.9927C0.744962 9.28933 0.827926 9.58086 0.988652 9.83023C2.22662 11.7676 3.81943 13.3993 5.59553 14.5482C7.59662 15.8434 9.74631 16.4996 11.9851 16.4996C13.1412 16.4965 14.2899 16.3139 15.3901 15.9582C15.4207 15.9484 15.4483 15.9309 15.4702 15.9074C15.4921 15.8838 15.5076 15.855 15.5152 15.8238C15.5228 15.7925 15.5222 15.7598 15.5135 15.7289C15.5048 15.6979 15.4883 15.6697 15.4655 15.6469L13.2404 13.4223C13.2174 13.3993 13.1889 13.3827 13.1576 13.3741C13.1263 13.3654 13.0933 13.3651 13.0618 13.373C12.7142 13.4573 12.3577 13.4998 12.0001 13.4996Z" fill="#D9D9D9"/>
</svg>
