<svg width="34" height="34" viewBox="0 0 34 34" fill="none" xmlns="http://www.w3.org/2000/svg">
<circle cx="17" cy="17" r="17" fill="#D9D9D9"/>
<path d="M22.9688 5.5625H12.0312C11.2027 5.5634 10.4084 5.89294 9.82254 6.47879C9.23669 7.06465 8.90715 7.85898 8.90625 8.6875V24.3125C8.90715 25.141 9.23669 25.9354 9.82254 26.5212C10.4084 27.1071 11.2027 27.4366 12.0312 27.4375H22.9688C23.7973 27.4366 24.5916 27.1071 25.1775 26.5212C25.7633 25.9354 26.0928 25.141 26.0938 24.3125V8.6875C26.0928 7.85898 25.7633 7.06465 25.1775 6.47879C24.5916 5.89294 23.7973 5.5634 22.9688 5.5625ZM17.5 18.8438H13.5938C13.3865 18.8438 13.1878 18.7614 13.0413 18.6149C12.8948 18.4684 12.8125 18.2697 12.8125 18.0625C12.8125 17.8553 12.8948 17.6566 13.0413 17.5101C13.1878 17.3636 13.3865 17.2812 13.5938 17.2812H17.5C17.7072 17.2812 17.9059 17.3636 18.0524 17.5101C18.1989 17.6566 18.2812 17.8553 18.2812 18.0625C18.2812 18.2697 18.1989 18.4684 18.0524 18.6149C17.9059 18.7614 17.7072 18.8438 17.5 18.8438ZM21.4062 14.9375H13.5938C13.3865 14.9375 13.1878 14.8552 13.0413 14.7087C12.8948 14.5622 12.8125 14.3635 12.8125 14.1562C12.8125 13.949 12.8948 13.7503 13.0413 13.6038C13.1878 13.4573 13.3865 13.375 13.5938 13.375H21.4062C21.6135 13.375 21.8122 13.4573 21.9587 13.6038C22.1052 13.7503 22.1875 13.949 22.1875 14.1562C22.1875 14.3635 22.1052 14.5622 21.9587 14.7087C21.8122 14.8552 21.6135 14.9375 21.4062 14.9375ZM21.4062 11.0312H13.5938C13.3865 11.0312 13.1878 10.9489 13.0413 10.8024C12.8948 10.6559 12.8125 10.4572 12.8125 10.25C12.8125 10.0428 12.8948 9.84409 13.0413 9.69757C13.1878 9.55106 13.3865 9.46875 13.5938 9.46875H21.4062C21.6135 9.46875 21.8122 9.55106 21.9587 9.69757C22.1052 9.84409 22.1875 10.0428 22.1875 10.25C22.1875 10.4572 22.1052 10.6559 21.9587 10.8024C21.8122 10.9489 21.6135 11.0312 21.4062 11.0312Z" fill="#7F46A9"/>
</svg>
