<svg width="34" height="34" viewBox="0 0 34 34" fill="none" xmlns="http://www.w3.org/2000/svg">
<circle cx="17" cy="17" r="17" fill="#D9D9D9"/>
<path d="M21.6348 21.8393C21.958 20.7073 22.1718 19.392 22.2533 18.1293C22.2551 18.0963 22.2501 18.0633 22.2386 18.0323C22.2271 18.0013 22.2094 17.973 22.1865 17.9492C22.1636 17.9254 22.1361 17.9065 22.1056 17.8937C22.0752 17.8809 22.0424 17.8746 22.0094 17.875H18.1233C18.0915 17.8747 18.0599 17.8807 18.0304 17.8926C18.0009 17.9045 17.974 17.9221 17.9513 17.9444C17.9286 17.9667 17.9105 17.9932 17.8981 18.0225C17.8857 18.0518 17.8791 18.0833 17.8788 18.1151V21.1393C17.8795 21.2004 17.9032 21.259 17.9452 21.3034C17.9871 21.3477 18.0443 21.3747 18.1052 21.3788C19.2004 21.4673 20.2824 21.6762 21.3318 22.0017C21.3935 22.0203 21.4601 22.0136 21.5169 21.9831C21.5736 21.9527 21.616 21.901 21.6348 21.8393Z" fill="#7F46A9"/>
<path d="M20.6958 23.6341C19.8632 23.3911 19.0102 23.2247 18.1473 23.137C18.114 23.1333 18.0803 23.1365 18.0483 23.1466C18.0163 23.1566 17.9867 23.1732 17.9614 23.1952C17.9362 23.2173 17.9158 23.2444 17.9016 23.2747C17.8873 23.3051 17.8796 23.3381 17.8788 23.3716V26.9394C17.8801 26.982 17.8925 27.0235 17.9148 27.0598C17.9371 27.0961 17.9684 27.1259 18.0058 27.1464C18.0431 27.1668 18.0852 27.1771 18.1277 27.1763C18.1703 27.1755 18.2119 27.1636 18.2485 27.1418C19.118 26.6348 19.8344 25.7834 20.4819 24.6573C20.588 24.4736 20.7494 24.1569 20.8467 23.9634C20.8618 23.9322 20.8699 23.8981 20.8702 23.8635C20.8706 23.8289 20.8633 23.7946 20.8489 23.7631C20.8345 23.7317 20.8133 23.7038 20.7868 23.6815C20.7603 23.6592 20.7292 23.643 20.6958 23.6341Z" fill="#7F46A9"/>
<path d="M15.8674 23.1469C15.0056 23.2289 14.1532 23.3903 13.3212 23.6292C13.1768 23.6708 13.1161 23.8699 13.1817 24.0006C13.2796 24.1953 13.4005 24.4441 13.5038 24.63C14.2148 25.8878 14.9716 26.6808 15.7591 27.1418C15.7957 27.1636 15.8373 27.1756 15.8799 27.1764C15.9225 27.1772 15.9645 27.1668 16.0018 27.1464C16.0392 27.1259 16.0706 27.0961 16.0928 27.0598C16.1151 27.0235 16.1275 26.982 16.1288 26.9395V23.37C16.1286 23.3374 16.1213 23.3053 16.1075 23.2757C16.0938 23.2462 16.0738 23.22 16.049 23.1988C16.0242 23.1777 15.9952 23.1621 15.9639 23.1531C15.9325 23.1442 15.8996 23.142 15.8674 23.1469Z" fill="#7F46A9"/>
<path d="M15.8844 17.875H11.9983C11.9653 17.8746 11.9326 17.8809 11.9022 17.8937C11.8717 17.9064 11.8442 17.9252 11.8214 17.949C11.7985 17.9728 11.7808 18.001 11.7692 18.0319C11.7577 18.0628 11.7527 18.0958 11.7544 18.1287C11.8353 19.3898 12.0481 20.7078 12.3702 21.8387C12.3793 21.8697 12.3945 21.8985 12.4148 21.9236C12.4352 21.9486 12.4603 21.9693 12.4888 21.9846C12.5172 21.9999 12.5484 22.0093 12.5805 22.0125C12.6126 22.0156 12.645 22.0123 12.6759 22.0028C13.7252 21.6773 14.8073 21.4689 15.9024 21.3816C15.9635 21.3776 16.0208 21.3507 16.0629 21.3063C16.1049 21.2619 16.1287 21.2032 16.1294 21.142V18.1156C16.1292 18.0837 16.1227 18.0522 16.1102 18.0228C16.0978 17.9934 16.0797 17.9668 16.0569 17.9444C16.0341 17.922 16.0072 17.9044 15.9776 17.8925C15.948 17.8806 15.9163 17.8746 15.8844 17.875Z" fill="#7F46A9"/>
<path d="M18.1484 10.863C19.0107 10.7822 19.8627 10.6147 20.6914 10.3631C20.7247 10.3541 20.7555 10.3379 20.7819 10.3157C20.8082 10.2934 20.8293 10.2657 20.8437 10.2344C20.8581 10.2031 20.8654 10.169 20.8652 10.1345C20.865 10.1001 20.8572 10.0661 20.8423 10.035C20.7444 9.83976 20.6088 9.5603 20.5049 9.37382C19.8328 8.17069 19.0754 7.33124 18.2496 6.85819C18.213 6.83653 18.1714 6.82476 18.1289 6.82404C18.0864 6.82332 18.0444 6.83368 18.0071 6.85409C17.9698 6.8745 17.9385 6.90427 17.9162 6.94047C17.8939 6.97667 17.8814 7.01804 17.8799 7.06054V10.6278C17.8807 10.6613 17.8884 10.6944 17.9027 10.7248C17.9169 10.7552 17.9373 10.7823 17.9625 10.8044C17.9877 10.8265 18.0173 10.8431 18.0493 10.8532C18.0813 10.8633 18.1151 10.8666 18.1484 10.863Z" fill="#7F46A9"/>
<path d="M18.1233 16.125H22.0094C22.0421 16.1255 22.0746 16.1194 22.1049 16.1069C22.1352 16.0944 22.1626 16.0759 22.1854 16.0524C22.2083 16.029 22.2261 16.0011 22.2377 15.9705C22.2494 15.9399 22.2547 15.9072 22.2533 15.8745C22.1723 14.6293 21.9651 13.2605 21.643 12.1437C21.6335 12.113 21.6181 12.0845 21.5977 12.0597C21.5772 12.035 21.552 12.0146 21.5236 11.9996C21.4952 11.9846 21.4641 11.9753 21.4321 11.9724C21.4002 11.9695 21.3679 11.9729 21.3373 11.9824C20.2982 12.2963 19.2159 12.5528 18.1058 12.6387C18.0451 12.6421 17.988 12.6684 17.9459 12.7122C17.9038 12.756 17.8798 12.8141 17.8788 12.8749V15.8887C17.88 15.9525 17.9064 16.0131 17.9522 16.0574C17.998 16.1017 18.0595 16.126 18.1233 16.125Z" fill="#7F46A9"/>
<path d="M15.7591 6.85874C14.9159 7.32741 14.1639 8.19475 13.4913 9.39459C13.3868 9.58108 13.2621 9.83811 13.1631 10.0328C13.1484 10.0639 13.1407 10.0979 13.1405 10.1323C13.1403 10.1667 13.1477 10.2008 13.1621 10.2321C13.1765 10.2633 13.1975 10.2911 13.2238 10.3133C13.25 10.3356 13.2809 10.3518 13.3141 10.3609C14.1425 10.6171 14.9956 10.7852 15.8592 10.8624C15.8925 10.866 15.9262 10.8627 15.9582 10.8527C15.9902 10.8426 16.0197 10.8261 16.045 10.804C16.0702 10.782 16.0906 10.7549 16.1048 10.7246C16.1191 10.6943 16.1269 10.6613 16.1277 10.6278V7.06108C16.126 7.01882 16.1134 6.97771 16.0911 6.94176C16.0688 6.90581 16.0376 6.87622 16.0006 6.85586C15.9635 6.83551 15.9218 6.82508 15.8795 6.82558C15.8372 6.82608 15.7957 6.8375 15.7591 6.85874Z" fill="#7F46A9"/>
<path d="M15.9019 12.6392C14.7917 12.5544 13.7084 12.298 12.6704 11.983C12.6397 11.9734 12.6075 11.97 12.5755 11.973C12.5435 11.9759 12.5124 11.9851 12.484 12.0001C12.4556 12.0151 12.4305 12.0356 12.41 12.0603C12.3895 12.085 12.3741 12.1136 12.3647 12.1443C12.0426 13.261 11.8353 14.6298 11.7544 15.8751C11.753 15.9078 11.7582 15.9404 11.7699 15.971C11.7816 16.0016 11.7994 16.0295 11.8222 16.053C11.8451 16.0764 11.8725 16.095 11.9028 16.1075C11.933 16.1199 11.9655 16.1261 11.9983 16.1255H15.8844C15.916 16.126 15.9475 16.1203 15.9769 16.1086C16.0063 16.097 16.0331 16.0796 16.0558 16.0576C16.0786 16.0355 16.0967 16.0092 16.1092 15.9802C16.1217 15.9511 16.1284 15.9198 16.1288 15.8882V12.8755C16.1278 12.8147 16.1039 12.7566 16.0618 12.7127C16.0197 12.6689 15.9625 12.6427 15.9019 12.6392Z" fill="#7F46A9"/>
<path d="M25.662 8.33805C24.5265 7.19134 23.1756 6.28029 21.687 5.65723C20.1984 5.03417 18.6013 4.71138 16.9875 4.7074C15.3738 4.70343 13.7751 5.01836 12.2834 5.63408C10.7917 6.24981 9.43641 7.1542 8.29531 8.29531C7.1542 9.43641 6.24981 10.7917 5.63408 12.2834C5.01836 13.7751 4.70343 15.3738 4.7074 16.9875C4.71138 18.6013 5.03416 20.1984 5.65723 21.687C6.28029 23.1756 7.19134 24.5265 8.33805 25.662C9.47353 26.8087 10.8244 27.7197 12.313 28.3428C13.8017 28.9658 15.3987 29.2886 17.0125 29.2926C18.6263 29.2966 20.2249 28.9817 21.7166 28.3659C23.2083 27.7502 24.5636 26.8458 25.7047 25.7047C26.8458 24.5636 27.7502 23.2083 28.3659 21.7166C28.9817 20.2249 29.2966 18.6263 29.2926 17.0125C29.2886 15.3987 28.9658 13.8017 28.3428 12.313C27.7197 10.8244 26.8087 9.47353 25.662 8.33805ZM12.6578 26.5621C12.4114 26.2161 12.1836 25.8572 11.9753 25.487C11.8659 25.2852 11.7106 24.9806 11.6073 24.7689C11.5836 24.7187 11.5497 24.674 11.5077 24.6377C11.4657 24.6013 11.4166 24.5742 11.3636 24.5579C11.3105 24.5416 11.2546 24.5366 11.1995 24.5432C11.1443 24.5498 11.0912 24.5678 11.0434 24.5961C10.8083 24.7279 10.4966 24.9089 10.2707 25.0571C9.79707 24.6971 9.36477 24.2857 8.98172 23.8305C9.51145 23.4566 10.0672 23.1211 10.6448 22.8264C10.7465 22.7717 10.7963 22.7094 10.764 22.5978C10.3408 21.1332 10.0824 19.626 9.99344 18.1041C9.99079 18.0433 9.96495 17.9858 9.92122 17.9433C9.8775 17.9009 9.8192 17.8769 9.75829 17.8761H6.65532C6.62894 17.8764 6.60334 17.8672 6.58325 17.8501C6.56315 17.833 6.5499 17.8092 6.54594 17.7831C6.51158 17.5236 6.49622 17.2618 6.50001 17C6.49627 16.7387 6.51199 16.4775 6.54704 16.2185C6.55099 16.1924 6.56424 16.1687 6.58434 16.1516C6.60444 16.1345 6.63003 16.1253 6.65641 16.1256H9.75938C9.88461 16.1256 9.98743 16.0534 9.99399 15.927C10.0818 14.4115 10.3386 12.9105 10.7596 11.452C10.7753 11.3987 10.7719 11.3417 10.7501 11.2907C10.7282 11.2397 10.6892 11.1979 10.6398 11.1725C10.0747 10.8829 9.52952 10.5559 9.00797 10.1936C9.38898 9.73849 9.81274 9.32096 10.2734 8.94672C10.4966 9.09329 10.7875 9.25899 11.0205 9.39024C11.0718 9.41942 11.1286 9.43776 11.1873 9.44411C11.246 9.45046 11.3054 9.44469 11.3618 9.42715C11.4182 9.40962 11.4704 9.3807 11.5152 9.34218C11.5599 9.30366 11.5963 9.25636 11.622 9.20321C11.7248 8.99157 11.8408 8.75587 11.9534 8.55352C12.1626 8.17871 12.3915 7.81525 12.6392 7.46469C14.0028 6.8223 15.4927 6.4927 17 6.50001C18.5827 6.50001 20.057 6.88282 21.404 7.50954C21.6418 7.84346 21.8609 8.19035 22.0602 8.5486C22.2019 8.80344 22.3523 9.11571 22.4791 9.38641C22.4928 9.41524 22.5121 9.44099 22.536 9.46208C22.5599 9.48318 22.5879 9.49918 22.6182 9.5091C22.6485 9.51903 22.6805 9.52268 22.7123 9.51983C22.744 9.51697 22.7749 9.50768 22.8029 9.49251C23.0971 9.33337 23.4159 9.15016 23.6965 8.96587C24.1585 9.34377 24.5833 9.76496 24.9652 10.2237C24.458 10.5755 23.9269 10.8918 23.376 11.1703C23.3266 11.1957 23.2876 11.2376 23.2658 11.2888C23.244 11.3399 23.2408 11.3971 23.2568 11.4503C23.6847 12.8989 23.939 14.3933 24.0142 15.9019C24.0172 15.9624 24.0432 16.0195 24.0869 16.0614C24.1307 16.1033 24.1888 16.1268 24.2494 16.1272L27.3458 16.1234C27.3722 16.1231 27.3978 16.1323 27.4179 16.1494C27.438 16.1665 27.4512 16.1903 27.4552 16.2163C27.519 16.7361 27.519 17.2617 27.4552 17.7815C27.4514 17.8078 27.4383 17.8318 27.4182 17.8491C27.3981 17.8664 27.3723 17.8758 27.3458 17.8756H24.2466C24.1857 17.8762 24.1273 17.9002 24.0836 17.9427C24.0398 17.9851 24.014 18.0427 24.0115 18.1036C23.9263 19.6094 23.6719 21.1008 23.253 22.5497C23.2371 22.6036 23.2404 22.6612 23.2622 22.713C23.2841 22.7647 23.3231 22.8073 23.3727 22.8335C23.6462 22.9752 23.9508 23.1332 24.2133 23.294C24.4758 23.4548 24.7356 23.6265 24.986 23.8048C24.6071 24.2613 24.1859 24.6812 23.7282 25.0588C23.5948 24.9707 23.4362 24.8706 23.2995 24.7886C23.2054 24.7339 23.032 24.6371 22.9358 24.583C22.7269 24.4659 22.5049 24.5534 22.4004 24.7689C22.2959 24.9844 22.1363 25.2934 22.0247 25.4935C21.8191 25.8615 21.5936 26.2181 21.3493 26.5616C20.0029 27.1921 18.5827 27.5 17 27.5C15.4173 27.5 14.0048 27.1921 12.6578 26.5621Z" fill="#7F46A9"/>
</svg>
