<svg width="34" height="34" viewBox="0 0 34 34" fill="none" xmlns="http://www.w3.org/2000/svg">
<circle cx="17" cy="17" r="17" fill="#D9D9D9"/>
<path d="M23.8555 29.375C22.8642 29.375 21.4718 29.0165 19.3867 27.8515C16.8512 26.4297 14.89 25.117 12.3682 22.6018C9.93682 20.1719 8.75362 18.5987 7.09764 15.5853C5.22686 12.183 5.54577 10.3996 5.90225 9.63733C6.32678 8.72631 6.95343 8.18143 7.76339 7.64061C8.22344 7.33919 8.71029 7.08081 9.21776 6.86874C9.26854 6.8469 9.31577 6.82608 9.35792 6.80729C9.60928 6.69405 9.99014 6.52292 10.4726 6.70573C10.7945 6.82659 11.0819 7.07389 11.5319 7.51823C12.4546 8.42823 13.7155 10.4549 14.1806 11.4502C14.4929 12.121 14.6996 12.5639 14.7001 13.0605C14.7001 13.6419 14.4076 14.0903 14.0526 14.5743C13.9861 14.6652 13.9201 14.752 13.8561 14.8363C13.4697 15.3441 13.3849 15.4909 13.4407 15.7529C13.554 16.2795 14.3985 17.8471 15.7863 19.2319C17.1742 20.6167 18.6966 21.4079 19.2252 21.5207C19.4984 21.579 19.6482 21.4907 20.1723 21.0905C20.2474 21.0331 20.3246 20.9737 20.4054 20.9143C20.9467 20.5116 21.3743 20.2267 21.942 20.2267H21.9451C22.4392 20.2267 22.8622 20.441 23.563 20.7945C24.477 21.2556 26.5646 22.5002 27.4802 23.4239C27.9256 23.8728 28.1739 24.1592 28.2953 24.4807C28.4781 24.9646 28.3059 25.344 28.1937 25.5979C28.1749 25.64 28.1541 25.6862 28.1323 25.7375C27.9185 26.2441 27.6586 26.7299 27.3558 27.1889C26.816 27.9963 26.2691 28.6214 25.356 29.0464C24.8872 29.2682 24.3741 29.3805 23.8555 29.375Z" fill="#7F46A9"/>
</svg>
