<svg width="32" height="32" viewBox="0 0 32 32" fill="none" xmlns="http://www.w3.org/2000/svg">
<path fill-rule="evenodd" clip-rule="evenodd" d="M20.8047 6.86525C20.6574 6.86525 20.091 6.51357 19.4571 6.51357C18.8585 6.51357 18.5848 7.38996 19.0711 7.77855C19.2223 7.89961 19.9726 8.11281 20.2608 8.22915C21.2665 8.63545 20.9196 8.45415 22.29 7.76438L24.5548 6.51357C24.5548 7.66605 24.5542 8.81823 24.5548 9.9707C24.5557 11.8121 24.4635 10.7553 25.4592 12.4059C26.1059 13.478 26.2007 14.4082 26.7558 14.5667C27.1219 14.671 27.9877 14.6013 28.422 14.5995C28.756 14.598 29.5352 14.5325 29.5352 15.2441V19.6387C29.5352 20.9087 26.6728 19.8927 25.8995 20.3976C25.7046 20.5252 25.1772 21.6035 24.481 22.3187C24.0924 22.7176 23.9252 22.9674 23.3497 23.4145C23.115 23.597 22.9691 23.7245 22.7152 23.8931C21.992 24.3729 22.0322 24.2516 21.835 25.2393L21.2784 28.0226C21.1777 28.526 21.2134 28.8382 20.9804 28.8382H18.1679V26.6115C18.1679 25.8431 17.3384 25.8854 16.8627 25.9509C15.6403 26.1192 13.4647 25.6739 13.0702 25.6739C12.7498 25.6739 12.4256 25.9852 12.4256 26.3185V28.8382H9.43736L8.51461 24.1358C8.35929 23.3604 8.44581 23.2999 7.95801 22.8174C5.34184 20.2302 4.53336 16.5965 6.11665 13.1538C6.30386 12.7463 6.70632 12.3309 6.45031 11.8472C6.22413 11.4205 5.61202 11.3136 5.25945 11.7108C5.09144 11.9001 4.73563 12.6698 4.62342 12.9501C4.28267 13.8028 4.15511 14.2071 3.99566 15.1345C3.94546 15.4248 3.93276 15.7405 3.87076 16.0059C2.8169 16.0059 2.45696 16.0493 2.46434 14.9518C2.46788 14.4049 2.64269 13.1349 1.76158 13.1349C1.25015 13.1349 1.06147 13.4172 0.999756 13.8501V15.4201C0.999756 16.137 1.42998 16.7037 1.86049 17.0202C2.44367 17.4495 2.9049 17.4708 3.87076 17.4708C4.07066 19.8717 5.15876 22.0326 6.81794 23.723C7.09225 24.0024 7.20948 25.0527 7.30367 25.5228L8.07228 29.3242C8.17563 29.6183 8.34306 29.8383 8.56451 30.0039C8.81019 30.1879 9.01452 30.303 9.43736 30.303H12.4256C14.2005 30.303 13.8905 28.2001 13.8905 27.2561C14.3042 27.4545 16.1207 27.4317 16.703 27.4317V28.9554C16.703 29.623 17.383 30.303 18.0507 30.303H21.2149C21.695 30.303 22.1296 29.9502 22.331 29.6611C22.561 29.3307 22.6157 28.7767 22.714 28.2863C22.8182 27.7654 22.9027 27.342 23.0069 26.8214L23.3001 25.3568C23.3943 25.097 23.229 25.3353 23.7596 24.9375L25.1846 23.726C25.5995 23.3147 26.4676 22.2301 26.7227 21.7482C27.7222 21.7482 28.9671 21.8598 29.7047 21.566C30.3219 21.3203 31.0001 20.5692 31.0001 19.6975V15.0684C31.0001 14.7436 30.7766 14.2927 30.639 14.0819C29.8952 12.9412 28.6662 13.1349 27.4258 13.1349C27.2105 12.2107 26.0722 10.7954 26.0315 10.6035C25.9627 10.2787 26.0775 6.09428 26.0197 5.28314C25.9671 4.55026 25.3494 4.38195 24.6248 4.82576C24.4396 4.93885 24.2681 5.00588 24.0885 5.10982C23.6403 5.37025 20.9282 6.86525 20.8047 6.86525Z" fill="black"/>
<path fill-rule="evenodd" clip-rule="evenodd" d="M15.4141 9.61903C14.6741 9.61903 13.2515 10.0301 12.7197 10.2645C12.2068 10.4904 11.5805 10.7998 11.1119 11.1179C11.0357 11.1698 10.6211 11.494 10.6093 11.494C9.38775 11.494 7.44511 9.61607 7.44511 7.50985C7.44511 5.78512 8.40979 4.25528 9.8475 3.58381C11.008 3.04168 12.3943 3.02071 13.54 3.58293C15.6367 4.61227 16.5444 6.94645 15.6241 9.12591C15.539 9.32699 15.4616 9.4141 15.4141 9.61903ZM5.98023 7.33386C5.98023 8.6951 6.42226 9.90013 7.04265 10.7248C7.90811 11.8755 8.32268 12.076 9.43736 12.666C9.27082 12.9149 9.08568 12.9637 9.08568 13.3691C9.08568 13.8572 9.82949 14.544 10.5261 13.6375C10.7189 13.3865 10.8751 13.2498 11.0927 13.0322C13.6563 10.4668 17.2369 11.1379 17.5685 11.0721C18.1832 10.9501 18.3864 10.1272 17.8543 9.75692C17.6012 9.58093 17.3889 9.61903 16.9959 9.61903C17.0934 9.41617 17.2558 8.91478 17.3133 8.64756C18.5095 3.10782 11.7086 -0.650492 7.6648 3.39336C6.68536 4.37309 5.98023 5.8241 5.98023 7.33386Z" fill="black"/>
<path fill-rule="evenodd" clip-rule="evenodd" d="M23.1484 14.5995C24.0569 14.5995 24.1169 13.1349 23.1484 13.1349C22.722 13.1349 22.414 13.4692 22.4043 13.8448C22.3942 14.2186 22.7406 14.5995 23.1484 14.5995Z" fill="black"/>
</svg>
