<svg width="32" height="32" viewBox="0 0 32 32" fill="none" xmlns="http://www.w3.org/2000/svg">
<path fill-rule="evenodd" clip-rule="evenodd" d="M23.9102 14.4046C22.9045 14.4046 22.9151 12.881 23.793 12.881C25.1359 12.881 24.7378 14.4046 23.9102 14.4046ZM0.999756 15.3217V13.5256C0.999756 12.6601 2.49682 12.5116 2.58216 13.5253C2.73984 15.4009 2.01434 15.9864 4.16397 15.9864C4.25019 14.9473 4.61014 13.7535 4.98337 12.9973C5.19567 12.5665 5.38347 12.1918 5.65188 11.7908C6.67945 10.2553 6.37472 10.6956 7.5957 11.6172C7.82691 11.7917 7.90752 11.8389 8.16618 11.9842L8.79276 12.2951C8.75408 12.3533 7.99049 13.0487 8.63981 13.62C9.3535 14.2472 9.90183 13.3401 10.009 13.2185C11.7225 11.2726 13.8323 10.5766 16.3602 10.4284L17.699 10.4786C18.3229 10.4786 18.5937 9.50798 18.051 9.13062C17.769 8.93485 17.456 8.95522 17.1131 8.95522C17.1217 8.57047 17.4439 8.00767 17.5215 7.13689C17.5466 6.8549 17.5268 6.73177 17.7577 6.67006C18.0374 6.54899 19.4284 6.95205 19.6918 7.02085C20.2531 7.1679 21.2361 7.60757 21.5078 7.60757L23.3356 6.62281C23.5245 6.50795 25.0387 5.67408 25.1406 5.67408C25.3644 5.67408 25.4923 5.84741 25.4923 6.08422V9.71704C25.4923 10.2911 25.3352 10.4378 25.6582 10.84C28.2121 14.0207 26.4965 14.4046 28.9491 14.4046C29.5642 14.4046 31.0001 14.1577 31.0001 15.1077V20.0297C31.0001 20.9291 29.7207 20.7327 29.1836 20.7327C28.4793 20.7327 27.3286 20.5792 26.9114 20.9214C26.6138 21.1659 25.7642 23.2013 23.3125 24.8226C22.5336 25.3376 22.6473 25.3766 22.4403 26.4115C22.305 27.088 22.1683 27.7722 22.0301 28.4623C21.8574 29.3259 21.8465 30.2248 21.3318 30.2248C18.3049 30.2248 18.3359 30.4796 18.3433 29.4051C18.356 27.5244 18.5603 26.8757 17.1692 26.9988C16.5063 27.0573 15.4841 27.0644 14.8365 26.9938C13.5051 26.8483 12.3358 26.3472 12.0978 27.2602C12.0397 27.4831 12.0721 29.1689 12.0757 29.5235C12.0798 29.941 12.0742 30.2248 11.6641 30.2248H9.08568C8.68971 30.2248 8.67643 29.92 8.61117 29.5861L8.0652 26.8509C7.93705 26.2099 7.81303 25.5907 7.69403 24.9954C7.63114 24.6803 7.58478 24.3653 7.49383 24.0824C7.43123 23.8878 6.7078 23.1381 6.49195 22.9163C5.34331 21.7376 4.31279 19.3564 4.16397 17.5685C3.0301 17.5685 2.68698 17.6205 1.97093 17.1247C1.28795 16.6517 1.06383 16.0242 0.999756 15.3217Z" fill="black"/>
<path fill-rule="evenodd" clip-rule="evenodd" d="M6.5076 6.37714C6.5076 8.08415 7.26676 9.54194 8.63951 10.4561C8.87574 10.6135 9.70813 11.0647 10.0232 11.0647C10.0371 11.0647 10.3167 10.8288 10.3855 10.7821C11.9809 9.70346 13.131 9.28062 15.0412 8.99272C15.366 8.94371 15.3043 8.99745 15.4442 8.75118C17.1105 5.81375 14.978 1.74805 11.2536 1.74805C10.0134 1.74805 8.79158 2.29963 7.92671 3.10869C7.14658 3.83803 6.5076 5.24091 6.5076 6.37714Z" fill="black"/>
</svg>
