<svg width="34" height="34" viewBox="0 0 34 34" fill="none" xmlns="http://www.w3.org/2000/svg">
<circle cx="17" cy="17" r="17" fill="#D9D9D9"/>
<path d="M22.25 12.25H21.5V8.8125C21.5 7.71848 21.0259 6.66927 20.182 5.89568C19.3381 5.1221 18.1935 4.6875 17 4.6875C15.8065 4.6875 14.6619 5.1221 13.818 5.89568C12.9741 6.66927 12.5 7.71848 12.5 8.8125V12.25H11.75C10.9546 12.2508 10.1921 12.5408 9.62964 13.0563C9.06722 13.5719 8.75087 14.2709 8.75 15V22.5625C8.75087 23.2916 9.06722 23.9906 9.62964 24.5062C10.1921 25.0217 10.9546 25.3117 11.75 25.3125H22.25C23.0454 25.3117 23.8079 25.0217 24.3704 24.5062C24.9328 23.9906 25.2491 23.2916 25.25 22.5625V15C25.2491 14.2709 24.9328 13.5719 24.3704 13.0563C23.8079 12.5408 23.0454 12.2508 22.25 12.25ZM20 12.25H14V8.8125C14 8.08315 14.3161 7.38368 14.8787 6.86796C15.4413 6.35223 16.2044 6.0625 17 6.0625C17.7956 6.0625 18.5587 6.35223 19.1213 6.86796C19.6839 7.38368 20 8.08315 20 8.8125V12.25Z" fill="#7F46A9"/>
</svg>
