<svg width="34" height="34" viewBox="0 0 34 34" fill="none" xmlns="http://www.w3.org/2000/svg">
<rect width="34" height="34" rx="17" fill="#D9D9D9"/>
<path d="M17.5344 5.52162C17.4684 5.44453 17.3865 5.38265 17.2943 5.34022C17.2021 5.29779 17.1018 5.27582 17.0003 5.27582C16.8988 5.27582 16.7985 5.29779 16.7063 5.34022C16.6141 5.38265 16.5322 5.44453 16.4662 5.52162C14.6111 7.69135 8.5625 15.1925 8.5625 20.749C8.5625 25.9269 11.8227 29.1865 17 29.1865C22.1773 29.1865 25.4375 25.9269 25.4375 20.749C25.4375 15.1925 19.3889 7.69135 17.5344 5.52162ZM17.9375 26.1396C17.8249 26.1398 17.7139 26.113 17.6138 26.0614C17.5137 26.0098 17.4274 25.9349 17.3623 25.843C17.2972 25.7512 17.2551 25.645 17.2396 25.5334C17.224 25.4219 17.2355 25.3083 17.273 25.2021C17.321 25.0636 17.4114 24.9437 17.5315 24.8595C17.6515 24.7753 17.795 24.7312 17.9416 24.7333C18.8723 24.7313 19.7643 24.3607 20.4224 23.7026C21.0805 23.0445 21.4511 22.1525 21.4531 21.2218C21.451 21.0752 21.4951 20.9317 21.5793 20.8117C21.6635 20.6916 21.7833 20.6012 21.9219 20.5533C22.0281 20.5157 22.1417 20.5042 22.2532 20.5198C22.3648 20.5353 22.471 20.5774 22.5628 20.6425C22.6547 20.7076 22.7296 20.7939 22.7812 20.894C22.8328 20.9941 22.8596 21.1051 22.8594 21.2177C22.858 22.5227 22.339 23.7737 21.4163 24.6965C20.4935 25.6192 19.2424 26.1382 17.9375 26.1396Z" fill="#7F46A9"/>
</svg>
