<svg width="23" height="12" viewBox="0 0 23 12" fill="none" xmlns="http://www.w3.org/2000/svg">
<path fill-rule="evenodd" clip-rule="evenodd" d="M6.25 2.625C5.35489 2.625 4.49645 2.98058 3.86351 3.61351C3.23058 4.24645 2.875 5.10489 2.875 6C2.875 6.89511 3.23058 7.75355 3.86351 8.38649C4.49645 9.01942 5.35489 9.375 6.25 9.375H8.90594C9.52726 9.375 10.0309 9.87868 10.0309 10.5C10.0309 11.1213 9.52726 11.625 8.90594 11.625H6.25C4.75816 11.625 3.32742 11.0324 2.27252 9.97748C1.21763 8.92258 0.625 7.49184 0.625 6C0.625 4.50816 1.21763 3.07742 2.27252 2.02252C3.32742 0.967632 4.75816 0.375 6.25 0.375H8.84734C9.46866 0.375 9.97234 0.87868 9.97234 1.5C9.97234 2.12132 9.46866 2.625 8.84734 2.625H6.25ZM13.0277 1.5C13.0277 0.87868 13.5313 0.375 14.1527 0.375H16.75C18.2418 0.375 19.6726 0.967632 20.7275 2.02252C21.7824 3.07742 22.375 4.50816 22.375 6C22.375 7.49184 21.7824 8.92258 20.7275 9.97748C19.6726 11.0324 18.2418 11.625 16.75 11.625H14.0941C13.4727 11.625 12.9691 11.1213 12.9691 10.5C12.9691 9.87868 13.4727 9.375 14.0941 9.375H16.75C17.6451 9.375 18.5036 9.01942 19.1365 8.38649C19.7694 7.75355 20.125 6.89511 20.125 6C20.125 5.10489 19.7694 4.24645 19.1365 3.61351C18.5036 2.98058 17.6451 2.625 16.75 2.625H14.1527C13.5313 2.625 13.0277 2.12132 13.0277 1.5ZM6.30016 6C6.30016 5.37868 6.80384 4.875 7.42516 4.875H15.6686C16.2899 4.875 16.7936 5.37868 16.7936 6C16.7936 6.62132 16.2899 7.125 15.6686 7.125H7.42516C6.80384 7.125 6.30016 6.62132 6.30016 6Z" fill="#88BDFF"/>
</svg>
