<svg width="16" height="16" viewBox="0 0 16 16" fill="none" xmlns="http://www.w3.org/2000/svg">
<path fill-rule="evenodd" clip-rule="evenodd" d="M1.32507 12.045L0.230066 14.965C0.188019 15.0774 0.179205 15.1995 0.204678 15.3167C0.23015 15.434 0.288833 15.5414 0.373717 15.6262C0.458601 15.711 0.566099 15.7696 0.683372 15.7949C0.800645 15.8203 0.922737 15.8113 1.03507 15.7692L3.95423 14.6742C4.28835 14.549 4.59182 14.3538 4.84423 14.1017L13.3001 5.64584C13.3001 5.64584 13.0051 4.76167 12.1217 3.87751C11.2384 2.99418 10.3534 2.69918 10.3534 2.69918L1.89757 11.155C1.64541 11.4074 1.45021 11.7109 1.32507 12.045ZM11.5326 1.52001L12.6851 0.367509C12.8917 0.160842 13.1676 0.0291757 13.4559 0.077509C13.8617 0.144176 14.4826 0.345842 15.0676 0.931675C15.6534 1.51751 15.8551 2.13751 15.9217 2.54334C15.9701 2.83168 15.8384 3.10751 15.6317 3.31418L14.4784 4.46668C14.4784 4.46668 14.1842 3.58334 13.3001 2.70001C12.4167 1.81501 11.5326 1.52001 11.5326 1.52001Z" fill="#D9D9D9"/>
</svg>
